<svg width="26" height="26" viewBox="0 0 26 26" fill="none" xmlns="http://www.w3.org/2000/svg">
<path d="M22.7642 0.0263672C24.6608 -0.221509 26.2212 1.33853 25.9731 3.23535C25.5876 6.18321 24.5319 11.1454 21.5776 14.3311C20.5791 15.4077 19.3579 16.3982 18.1108 17.2715L18.231 17.2549L18.5845 19.7324C18.6734 20.3558 18.4642 20.9853 18.019 21.4307L14.0376 25.4131C12.8716 26.5792 10.8739 25.9135 10.6401 24.2812L10.1099 20.5635L10.2876 20.5381C9.86079 20.3798 9.46346 20.1308 9.13037 19.7979L6.20361 16.8701C5.8703 16.5368 5.62076 16.1392 5.4624 15.7119L5.43701 15.8906L1.72021 15.3594C0.0877825 15.1259 -0.577732 13.1291 0.588379 11.9629L4.5708 7.98047C5.01615 7.53552 5.64483 7.32607 6.26807 7.41504L8.74561 7.76855L8.729 7.8877C9.60217 6.64072 10.5929 5.4204 11.6694 4.42187C14.8549 1.46745 19.8165 0.41197 22.7642 0.0263672ZM7.66748 22.582C7.96036 22.2896 8.43527 22.2894 8.72803 22.582C9.02052 22.8749 9.02066 23.3508 8.72803 23.6436L6.9585 25.4131C6.66582 25.7058 6.19088 25.7054 5.89795 25.4131C5.60507 25.1202 5.60507 24.6454 5.89795 24.3525L7.66748 22.582ZM5.01221 19.9268C5.30493 19.6344 5.77994 19.6345 6.07275 19.9268C6.36535 20.2196 6.36542 20.6955 6.07275 20.9883L2.53369 24.5273C2.24091 24.8201 1.76605 24.8199 1.47314 24.5273C1.18054 24.2344 1.18036 23.7596 1.47314 23.4668L5.01221 19.9268ZM2.35791 17.2725C2.65076 16.9799 3.12564 16.9798 3.41846 17.2725C3.71096 17.5653 3.71097 18.0402 3.41846 18.333L1.64893 20.1035C1.35621 20.3962 0.881293 20.3959 0.588379 20.1035C0.295519 19.8106 0.295566 19.3359 0.588379 19.043L2.35791 17.2725ZM18.8149 7.18262C17.8371 6.20472 16.2518 6.20471 15.2739 7.18262C14.2963 8.1605 14.2963 9.74577 15.2739 10.7236C16.2518 11.7015 17.8371 11.7015 18.8149 10.7236C19.7928 9.74573 19.7928 8.16052 18.8149 7.18262Z" fill="#D9D9D9"/>
</svg>
