<svg width="30" height="35" viewBox="0 0 30 35" fill="none" xmlns="http://www.w3.org/2000/svg">
<path d="M17.9091 0C18.5116 0 19 0.671573 19 1.5C19 2.32843 18.5116 3 17.9091 3H12.0909C11.4884 3 11 2.32843 11 1.5C11 0.671573 11.4884 0 12.0909 0H17.9091Z" fill="#D9D9D9"/>
<path d="M16 5.83333C16 6.47767 15.5523 7 15 7C14.4477 7 14 6.47767 14 5.83333L14 1.16667C14 0.522334 14.4477 -6.78525e-08 15 -4.37114e-08C15.5523 -1.95703e-08 16 0.522334 16 1.16667L16 5.83333Z" fill="#D9D9D9"/>
<path d="M15 5C23.2843 5 30 11.7157 30 20C30 28.2843 23.2843 35 15 35C6.71573 35 0 28.2843 0 20C0 11.7157 6.71573 5 15 5ZM20.4312 14.5688C19.9806 14.1182 19.2502 14.1182 18.7996 14.5688L14.1842 19.1842C13.7336 19.6348 13.7336 20.3652 14.1842 20.8158C14.6348 21.2664 15.3652 21.2664 15.8158 20.8158L20.4312 16.2004C20.8818 15.7498 20.8818 15.0194 20.4312 14.5688Z" fill="#D9D9D9"/>
<path d="M25.0796 7.32952C25.5189 6.89016 26.2311 6.89016 26.6705 7.32952C27.1098 7.76889 27.1098 8.48107 26.6705 8.92043L25.9204 9.67048C25.4811 10.1098 24.7689 10.1098 24.3295 9.67048C23.8902 9.23111 23.8902 8.51893 24.3295 8.07957L25.0796 7.32952Z" fill="#D9D9D9"/>
</svg>
