<svg width="17" height="17" viewBox="0 0 17 17" fill="none" xmlns="http://www.w3.org/2000/svg">
<path d="M15.293 0.292969C15.6835 -0.0975555 16.3165 -0.0975555 16.707 0.292969C17.0974 0.683502 17.0975 1.31654 16.707 1.70703L9.91406 8.5L16.707 15.293C17.0974 15.6835 17.0975 16.3165 16.707 16.707C16.3165 17.0975 15.6835 17.0974 15.293 16.707L8.5 9.91406L1.70703 16.707C1.31654 17.0975 0.683502 17.0974 0.292969 16.707C-0.0975555 16.3165 -0.0975555 15.6835 0.292969 15.293L7.08594 8.5L0.292969 1.70703C-0.0975555 1.31651 -0.0975555 0.683493 0.292969 0.292969C0.683493 -0.0975555 1.31651 -0.0975555 1.70703 0.292969L8.5 7.08594L15.293 0.292969Z" fill="#E8E8E8" fill-opacity="0.3"/>
</svg>
