<svg width="9" height="9" viewBox="0 0 9 9" fill="none" xmlns="http://www.w3.org/2000/svg">
<path d="M3.5194 0.778627C3.77668 -0.259542 5.22332 -0.259542 5.4806 0.778627C5.63503 1.40176 6.30478 1.73063 6.87887 1.46522C7.83533 1.02303 8.73729 2.17626 8.10166 3.02865C7.72014 3.54027 7.88555 4.27923 8.447 4.5714C9.38241 5.05817 9.0605 6.49623 8.01059 6.52097C7.38042 6.53582 6.91694 7.12842 7.04296 7.75816C7.25293 8.80734 5.94956 9.44734 5.27598 8.6258C4.87168 8.1327 4.12832 8.1327 3.72402 8.6258C3.05044 9.44734 1.74707 8.80734 1.95704 7.75816C2.08306 7.12842 1.61958 6.53582 0.989405 6.52097C-0.0604993 6.49623 -0.382406 5.05817 0.552996 4.5714C1.11445 4.27923 1.27986 3.54027 0.89834 3.02865C0.262707 2.17626 1.16467 1.02303 2.12113 1.46522C2.69522 1.73063 3.36497 1.40176 3.5194 0.778627Z" fill="white"/>
</svg>
