<svg width="9" height="9" viewBox="0 0 9 9" fill="none" xmlns="http://www.w3.org/2000/svg">
<path d="M2.98469 1.05501C3.50521 -0.351671 5.49479 -0.351669 6.01531 1.05501L6.27867 1.76673C6.44232 2.20899 6.79101 2.55768 7.23327 2.72133L7.94499 2.98469C9.35167 3.50521 9.35167 5.49479 7.94499 6.01531L7.23327 6.27867C6.79101 6.44232 6.44232 6.79101 6.27867 7.23327L6.01531 7.94499C5.49479 9.35167 3.50521 9.35167 2.98469 7.94499L2.72133 7.23327C2.55768 6.79101 2.20899 6.44232 1.76673 6.27867L1.05501 6.01531C-0.351671 5.49479 -0.351669 3.50521 1.05501 2.98469L1.76673 2.72133C2.20899 2.55768 2.55768 2.20899 2.72133 1.76673L2.98469 1.05501Z" fill="white"/>
</svg>
