<svg width="69" height="74" viewBox="0 0 69 74" fill="none" xmlns="http://www.w3.org/2000/svg">
<path d="M23.4837 16.3988C27.2206 14.37 31.4466 13.4153 35.6929 13.6379C39.9393 13.8605 44.0416 15.2532 47.546 17.6617C51.0504 20.0703 53.8216 23.4012 55.5512 27.2859C55.9944 28.2827 55.5456 29.4501 54.549 29.8941C53.5518 30.3381 52.3825 29.8904 51.9385 28.8932C50.5055 25.6744 48.2112 22.914 45.3076 20.9183C42.4038 18.9225 39.0035 17.7699 35.4848 17.5855C31.9663 17.4011 28.4652 18.1936 25.3688 19.8748C22.2726 21.5561 19.7015 24.0606 17.9399 27.1118C17.3942 28.0564 16.1854 28.3802 15.2404 27.8353C14.295 27.2895 13.9698 26.0789 14.5156 25.1336C16.6418 21.451 19.7467 18.4278 23.4837 16.3988Z" fill="#E0E0E0"/>
<path d="M11.38 28.3479C11.953 30.8294 14.4288 32.3764 16.9103 31.8037L25.2368 29.8815C26.3004 29.6359 26.9634 28.5749 26.7179 27.5113C26.4723 26.4477 25.4113 25.7847 24.3477 26.0303L16.0212 27.9525C15.6669 28.0342 15.3131 27.8131 15.2312 27.4589L13.3089 19.1324C13.0634 18.0688 12.0024 17.4058 10.9388 17.6513C9.8752 17.8969 9.2122 18.9579 9.45774 20.0214L11.38 28.3479Z" fill="#E0E0E0"/>
<path d="M45.4815 56.9294C41.7446 58.9581 37.5186 59.9128 33.2723 59.6903C29.0259 59.4676 24.9236 58.075 21.4192 55.6665C17.9149 53.2578 15.1436 49.9269 13.414 46.0423C12.9708 45.0454 13.4196 43.878 14.4162 43.434C15.4134 42.9901 16.5827 43.4378 17.0267 44.4349C18.4598 47.6537 20.754 50.4141 23.6576 52.4098C26.5615 54.4056 29.9618 55.5583 33.4804 55.7427C36.999 55.927 40.5 55.1345 43.5964 53.4533C46.6926 51.772 49.2637 49.2676 51.0253 46.2164C51.571 45.2717 52.7798 44.948 53.7249 45.4928C54.6702 46.0386 54.9955 47.2492 54.4497 48.1946C52.3234 51.8771 49.2185 54.9003 45.4815 56.9294Z" fill="#E0E0E0"/>
<path d="M57.5852 44.9802C57.0122 42.4987 54.5364 40.9517 52.0549 41.5244L43.7284 43.4467C42.6648 43.6922 42.0018 44.7532 42.2474 45.8168C42.4929 46.8804 43.5539 47.5434 44.6175 47.2978L52.944 45.3756C53.2983 45.2939 53.6521 45.515 53.734 45.8693L55.6563 54.1958C55.9018 55.2594 56.9628 55.9224 58.0264 55.6768C59.09 55.4313 59.753 54.3703 59.5075 53.3067L57.5852 44.9802Z" fill="#E0E0E0"/>
</svg>
