<svg width="15" height="14" viewBox="0 0 15 14" fill="none" xmlns="http://www.w3.org/2000/svg">
<path d="M0.626953 0.0102539L1.35938 0.156738C2.18747 0.322357 2.8112 1.00988 2.89551 1.8501L2.95508 2.4458H12.4424C13.8286 2.4461 14.8455 3.74938 14.5098 5.09424L13.7256 8.23291C13.395 9.55507 12.2066 10.4829 10.8438 10.4829H4.55859C3.586 10.4826 2.76725 9.75527 2.65137 8.78955L1.95898 3.02783L1.85254 1.95459C1.81415 1.57278 1.53061 1.26035 1.1543 1.18506L0.420898 1.03857C0.137136 0.981736 -0.0469939 0.705184 0.00976562 0.421387C0.0667827 0.137914 0.343349 -0.0463816 0.626953 0.0102539ZM5.41602 7.11279C5.0018 7.11279 4.66602 7.44858 4.66602 7.86279C4.66624 8.27681 5.00194 8.61279 5.41602 8.61279H8.21094C8.6248 8.61254 8.96071 8.27666 8.96094 7.86279C8.96094 7.44873 8.62494 7.11304 8.21094 7.11279H5.41602Z" fill="#E0E0E0" fill-opacity="0.7"/>
<circle cx="5.06584" cy="12.4047" r="1.04826" fill="#E0E0E0" fill-opacity="0.7"/>
<circle cx="11.3569" cy="12.4047" r="1.04826" fill="#E0E0E0" fill-opacity="0.7"/>
</svg>
