<svg width="21" height="21" viewBox="0 0 21 21" fill="none" xmlns="http://www.w3.org/2000/svg">
<path d="M0.75 9.43841C0.75 8.21422 1.31058 7.05744 2.27142 6.29888L7.77142 1.95677C9.22466 0.809478 11.2753 0.809479 12.7286 1.95677L18.2286 6.29888C19.1894 7.05744 19.75 8.21422 19.75 9.43841V16C19.75 18.2091 17.9591 20 15.75 20H14.25C13.6977 20 13.25 19.5523 13.25 19V16C13.25 14.8954 12.3546 14 11.25 14H9.25C8.14543 14 7.25 14.8954 7.25 16V19C7.25 19.5523 6.80228 20 6.25 20H4.75C2.54086 20 0.75 18.2091 0.75 16L0.75 9.43841Z" fill="#E0E0E0" stroke="#E0E0E0" stroke-width="1.5"/>
</svg>
