<svg width="14" height="14" viewBox="0 0 14 14" fill="none" xmlns="http://www.w3.org/2000/svg">
<path d="M5.09961 0C7.30875 0 9.09961 1.79086 9.09961 4V6.25H4.19922C3.78514 6.25 3.44943 6.58597 3.44922 7C3.44948 7.41399 3.78517 7.75 4.19922 7.75H9.09961V10C9.09961 12.2091 7.30875 14 5.09961 14H4C1.79086 14 5.15412e-07 12.2091 0 10V4C5.15413e-07 1.79086 1.79086 2.57703e-07 4 0H5.09961ZM10.6689 4.37012C10.9618 4.07722 11.4366 4.07722 11.7295 4.37012L13.335 5.97461C13.9009 6.54077 13.9008 7.45919 13.335 8.02539L11.7295 9.63086C11.4367 9.9233 10.9618 9.9233 10.6689 9.63086C10.3762 9.33808 10.3764 8.86323 10.6689 8.57031L11.4883 7.75H9.09961V6.25H11.4873L10.6689 5.43066C10.3761 5.13785 10.3763 4.66303 10.6689 4.37012Z" fill="#FF7979" fill-opacity="0.7"/>
</svg>
