<svg width="14" height="14" viewBox="0 0 14 14" fill="none" xmlns="http://www.w3.org/2000/svg">
<path d="M6.66504 0C7.25874 0 7.8362 0.0743046 8.3877 0.213867C8.8375 0.327806 9.06972 0.71606 9.14453 1.03906C9.23309 1.4218 9.47365 1.76709 9.83984 1.97852C10.1765 2.17279 10.5572 2.2185 10.9082 2.13574C11.2308 2.0597 11.6809 2.09573 11.9824 2.44727C12.543 3.10146 12.9853 3.86129 13.2754 4.69238C13.4484 5.18828 13.1807 5.63464 12.8975 5.86816C12.5704 6.13766 12.3633 6.5446 12.3633 7C12.3633 7.4554 12.5704 7.86234 12.8975 8.13184C13.1807 8.36536 13.4484 8.81172 13.2754 9.30762C12.9853 10.1386 12.5439 10.8986 11.9834 11.5527C11.6819 11.9046 11.2309 11.9404 10.9082 11.8643C10.5572 11.7815 10.1765 11.8272 9.83984 12.0215C9.4736 12.2329 9.23307 12.5781 9.14453 12.9609C9.06973 13.2839 8.83746 13.6722 8.3877 13.7861C7.83623 13.9257 7.25871 14 6.66504 14C6.07153 14 5.49469 13.9256 4.94336 13.7861C4.49333 13.6723 4.26034 13.284 4.18555 12.9609C4.09703 12.5782 3.85731 12.2329 3.49121 12.0215C3.15448 11.8271 2.77299 11.7814 2.42188 11.8643C2.09931 11.9402 1.64907 11.9042 1.34766 11.5527C0.787178 10.8986 0.344796 10.1386 0.0546875 9.30762C-0.118318 8.81156 0.150285 8.36526 0.433594 8.13184C0.760672 7.86234 0.967773 7.45539 0.967773 7C0.967773 6.54461 0.760671 6.13766 0.433594 5.86816C0.150285 5.63474 -0.118317 5.18844 0.0546875 4.69238C0.344829 3.86128 0.787089 3.10147 1.34766 2.44727C1.64916 2.09553 2.10022 2.05966 2.42285 2.13574C2.7738 2.21836 3.15468 2.17281 3.49121 1.97852C3.85732 1.76708 4.097 1.42175 4.18555 1.03906C4.26034 0.715975 4.49334 0.327741 4.94336 0.213867C5.49469 0.0743772 6.07153 1.46651e-05 6.66504 0ZM6.66602 5.04688C5.58713 5.04688 4.71191 5.92112 4.71191 7C4.71198 8.07882 5.58718 8.95312 6.66602 8.95312C7.74469 8.95293 8.61907 8.0787 8.61914 7C8.61914 5.92124 7.74473 5.04707 6.66602 5.04688Z" fill="#E0E0E0" fill-opacity="0.7"/>
</svg>
