<svg width="17" height="21" viewBox="0 0 17 21" fill="none" xmlns="http://www.w3.org/2000/svg">
<path d="M14.3975 3.0293C16.5381 3.0293 17.7599 5.37134 16.4756 7.0127C15.9274 7.71324 15.6309 8.56573 15.6309 9.44141V15.9395C15.6309 18.5957 13.3847 20.7489 10.6133 20.749H6.38672C3.61536 20.7488 1.36914 18.5957 1.36914 15.9395V9.44141C1.36914 8.56573 1.0726 7.71324 0.524414 7.0127C-0.759862 5.37134 0.461919 3.0293 2.60254 3.0293H14.3975ZM6.38672 8.09961C5.97251 8.09961 5.63672 8.4354 5.63672 8.84961V14.9248C5.63672 15.339 5.97251 15.6748 6.38672 15.6748C6.80076 15.6746 7.13672 15.3389 7.13672 14.9248V8.84961C7.13672 8.43552 6.80076 8.09982 6.38672 8.09961ZM10.6123 8.09961C10.1981 8.09967 9.8623 8.43543 9.8623 8.84961V14.9248C9.8623 15.339 10.1981 15.6747 10.6123 15.6748C11.0265 15.6748 11.3623 15.339 11.3623 14.9248V8.84961C11.3623 8.4354 11.0265 8.09961 10.6123 8.09961Z" fill="#BA5D5D"/>
<path d="M12.7253 3.78774L12.1359 2.09303C11.8563 1.28893 11.0982 0.75 10.2469 0.75H6.75185C5.90052 0.75 5.14249 1.28893 4.86284 2.09303L4.27344 3.78774" stroke="#BA5D5D" stroke-width="1.5" stroke-linecap="round"/>
</svg>
