<svg width="20" height="19" viewBox="0 0 20 19" fill="none" xmlns="http://www.w3.org/2000/svg">
<path fill-rule="evenodd" clip-rule="evenodd" d="M0.75 0C0.335786 0 0 0.335786 0 0.75C0 1.16421 0.335786 1.5 0.75 1.5H2V16.7156C2 18.1686 3.66841 18.9887 4.81891 18.1012L6.14974 17.0746C6.23344 17.01 6.34871 17.0051 6.43763 17.0622L8.26292 18.2356C9.16879 18.818 10.3312 18.818 11.2371 18.2356L13.0624 17.0622C13.1513 17.0051 13.2666 17.01 13.3503 17.0746L14.6811 18.1012C15.8316 18.9887 17.5 18.1686 17.5 16.7156V1.5H18.75C19.1642 1.5 19.5 1.16421 19.5 0.75C19.5 0.335786 19.1642 0 18.75 0H0.75ZM6 6.75C6 6.33579 6.33579 6 6.75 6H9.75C10.1642 6 10.5 6.33579 10.5 6.75C10.5 7.16421 10.1642 7.5 9.75 7.5H6.75C6.33579 7.5 6 7.16421 6 6.75ZM6.75 10C6.33579 10 6 10.3358 6 10.75C6 11.1642 6.33579 11.5 6.75 11.5H9.75C10.1642 11.5 10.5 11.1642 10.5 10.75C10.5 10.3358 10.1642 10 9.75 10H6.75ZM12 6.75C12 6.33579 12.3358 6 12.75 6H13.25C13.6642 6 14 6.33579 14 6.75C14 7.16421 13.6642 7.5 13.25 7.5H12.75C12.3358 7.5 12 7.16421 12 6.75ZM12.75 10C12.3358 10 12 10.3358 12 10.75C12 11.1642 12.3358 11.5 12.75 11.5H13.25C13.6642 11.5 14 11.1642 14 10.75C14 10.3358 13.6642 10 13.25 10H12.75Z" fill="#1D1D1D"/>
</svg>
