<svg width="17" height="21" viewBox="0 0 17 21" fill="none" xmlns="http://www.w3.org/2000/svg">
<path d="M13.6279 3C15.6541 3.00004 16.8104 5.31361 15.5947 6.93457C15.0761 7.62627 14.796 8.46748 14.7959 9.33203V15.75C14.7959 18.3733 12.6691 20.4998 10.0459 20.5H6.0459C3.42255 20.5 1.2959 18.3734 1.2959 15.75V9.33203C1.29585 8.4674 1.01483 7.62631 0.496094 6.93457C-0.719547 5.31372 0.436947 3.00033 2.46289 3H13.6279ZM6.04492 8C5.63071 8 5.29492 8.33579 5.29492 8.75V14.75C5.29492 15.1642 5.63071 15.5 6.04492 15.5C6.45914 15.5 6.79492 15.1642 6.79492 14.75V8.75C6.79492 8.33579 6.45914 8 6.04492 8ZM10.0449 8C9.63071 8 9.29492 8.33579 9.29492 8.75V14.75C9.29492 15.1642 9.63071 15.5 10.0449 15.5C10.4591 15.5 10.7949 15.1642 10.7949 14.75V8.75C10.7949 8.33579 10.4591 8 10.0449 8Z" fill="#BA5D5D"/>
<path d="M12.0449 3.75L11.5008 2.11754C11.2285 1.30086 10.4643 0.75 9.6034 0.75H6.48644C5.62558 0.75 4.8613 1.30086 4.58907 2.11754L4.04492 3.75" stroke="#BA5D5D" stroke-width="1.5" stroke-linecap="round"/>
</svg>
