<svg width="20" height="20" viewBox="0 0 20 20" fill="none" xmlns="http://www.w3.org/2000/svg">
<path d="M4.51793e-07 10.3358C3.55228e-07 8.12665 1.79086 6.33579 4 6.33579L9.25 6.33579L9.25 13.3358C9.25 13.75 9.58579 14.0858 10 14.0858C10.4142 14.0858 10.75 13.75 10.75 13.3358L10.75 6.33579L16 6.33579C18.2091 6.33578 20 8.12665 20 10.3358L20 15.3358C20 17.5449 18.2091 19.3358 16 19.3358L4 19.3358C1.79086 19.3358 7.66914e-07 17.5449 6.7035e-07 15.3358L4.51793e-07 10.3358ZM6.46973 3.86606C6.17683 3.57317 6.17683 3.0984 6.46973 2.80551L8.7627 0.512543C9.44609 -0.170774 10.5539 -0.170772 11.2373 0.512543L13.5303 2.80551C13.8232 3.0984 13.8232 3.57317 13.5303 3.86606C13.2374 4.15895 12.7626 4.15895 12.4697 3.86606L10.75 2.14633L10.75 6.33579L9.25 6.33579L9.25 2.14633L7.53027 3.86606C7.23738 4.15895 6.76262 4.15895 6.46973 3.86606Z" fill="#E8E8E8"/>
</svg>
