<svg width="35" height="35" viewBox="0 0 35 35" fill="none" xmlns="http://www.w3.org/2000/svg">
<path d="M24.38 24.0049C22.6223 25.7627 12.2599 25.7627 10.5022 24.0049C8.74444 22.2472 8.74444 13.01 10.5022 11.2523C12.2599 9.49459 22.6223 9.49459 24.38 11.2523C26.1377 13.01 26.1377 22.2472 24.38 24.0049Z" fill="#E0E0E0"/>
<path d="M20.0196 31.1058C18.6281 32.4973 16.3719 32.4973 14.9804 31.1058L3.89423 20.0196C2.5027 18.6281 2.5027 16.3719 3.89423 14.9804L14.9804 3.89424C16.3719 2.50271 18.6281 2.50271 20.0196 3.89424L31.1058 14.9804C32.4973 16.3719 32.4973 18.6281 31.1058 20.0196L20.0196 31.1058ZM12.9647 33.1214C15.4303 35.587 19.4039 35.6256 21.9167 33.2371L22.0353 33.1214L33.1214 22.0353C35.587 19.5697 35.6256 15.5961 33.2371 13.0833L33.1214 12.9647L22.0353 1.87857L21.9167 1.76292C19.4039 -0.625579 15.4303 -0.587026 12.9647 1.87857L1.87856 12.9647C-0.626188 15.4695 -0.626188 19.5305 1.87856 22.0353L12.9647 33.1214Z" fill="#E0E0E0"/>
</svg>
