<svg width="1345" height="273" viewBox="0 0 1345 273" fill="none" xmlns="http://www.w3.org/2000/svg">
<path d="M1234.32 1C1250.09 1 1264.36 3.41467 1277.12 8.26074H1277.12C1290.11 12.847 1301.22 19.352 1310.43 27.7842L1311.31 28.5557C1320.34 36.5715 1327.47 46.0298 1332.67 56.9248H1332.67C1338.28 68.1531 1341.72 80.1458 1343 92.8965L1343.11 93.9961H1288.51L1288.33 93.2344C1284.83 79.0093 1278.12 68.0969 1268.21 60.4209L1268.21 60.417L1268.2 60.4121C1258.26 52.4617 1247.11 48.498 1234.7 48.498C1212.99 48.4982 1197.16 56.3377 1187.01 71.9297L1187 71.9365C1176.79 87.3846 1171.62 108.777 1171.62 136.219C1171.62 164.164 1176.66 185.807 1186.62 201.254C1196.78 216.365 1211.87 223.94 1232.05 223.94C1247.05 223.94 1259.02 220.075 1268.05 212.434L1268.92 211.682C1278.33 203.26 1284.82 191.208 1288.32 175.434L1288.5 174.65H1343.21L1342.98 175.84C1340.19 190.332 1335.73 203.443 1329.62 215.166C1323.5 226.891 1315.72 236.969 1306.28 245.393L1306.28 245.394C1297.08 253.826 1286.35 260.336 1274.1 264.929C1261.85 269.526 1248.33 271.817 1233.56 271.817C1217.02 271.817 1201.48 269.017 1186.95 263.409L1186.94 263.407C1172.65 257.792 1160.26 249.365 1149.8 238.134C1139.33 226.904 1131.05 213.138 1124.95 196.855L1124.95 196.847L1124.94 196.838C1119.08 180.278 1116.16 161.077 1116.16 139.252C1116.16 117.938 1118.83 98.75 1124.17 81.7012L1124.17 81.6934C1129.77 64.3988 1137.67 49.866 1147.88 38.1211C1158.09 26.1288 1170.47 16.9405 1185.01 10.5625L1185.02 10.5605C1199.82 4.18127 1216.26 1.00003 1234.32 1Z" stroke="#FFF79F" stroke-width="2"/>
<path d="M1047.25 9.34082L1047.49 10.0088L1136.21 261.765L1136.68 263.097H1077.27L1077.06 262.39L1061.35 211.153H969.91L952.321 262.421L952.09 263.097H894.222L894.699 261.761L984.558 10.0049L984.794 9.34082H1047.25ZM984.218 165.93H1045.56L1015.25 69.5352L984.218 165.93Z" stroke="#FFF79F" stroke-width="2"/>
<path d="M820.967 9.34082C845.891 9.34087 865.007 15.572 878.146 28.1914L878.756 28.7734C891.479 41.081 897.797 57.8532 897.797 78.9668C897.797 90.0254 894.835 99.9541 888.904 108.722L888.896 108.733C883.473 116.515 876.734 122.261 868.688 125.95C873.222 127.868 877.475 130.258 881.443 133.122C886.351 136.23 890.48 140.363 893.828 145.508C897.439 150.415 900.26 156.33 902.306 163.233H902.305C904.362 169.924 905.38 177.86 905.38 187.024C905.38 210.275 897.574 228.887 881.914 242.75L881.907 242.757C866.229 256.379 842.311 263.097 810.351 263.097H695.984V9.34082H820.967ZM748.79 218.253H814.521C826.46 218.253 835.658 214.9 842.25 208.309C848.872 201.686 852.194 193.353 852.194 183.233C852.194 172.321 848.857 164.582 842.362 159.771L842.354 159.766L842.348 159.761C836.012 154.887 827.031 152.385 815.279 152.385H748.79V218.253ZM748.79 107.541H814.142C824.638 107.541 832.324 105.288 837.377 100.957C842.401 96.651 844.99 90.1438 844.99 81.2422C844.99 71.8254 842.272 65.2238 837.038 61.1797L837.028 61.1729L837.02 61.166C831.985 57.0907 823.43 54.9434 811.108 54.9434H748.79V107.541Z" stroke="#FFF79F" stroke-width="2"/>
<path d="M528.159 9.34082V104.128H624.358V9.34082H679.439V263.097H624.358V150.109H528.159V263.097H473.457V9.34082H528.159Z" stroke="#FFF79F" stroke-width="2"/>
<path d="M374.85 9.34082L375.085 10.0088L463.807 261.765L464.276 263.097H404.872L404.655 262.39L388.948 211.153H297.51L279.921 262.421L279.689 263.097H221.821L222.299 261.761L312.157 10.0049L312.394 9.34082H374.85ZM311.817 165.93H373.159L342.853 69.5352L311.817 165.93Z" stroke="#FFF79F" stroke-width="2"/>
<path d="M54.9434 9.34106V110.189L149.52 9.65552L149.815 9.34106H220.909L219.202 11.0481L120.443 109.806L221.602 261.542L222.639 263.097H156.154L155.858 262.647L81.835 150.298L54.9434 176.826V263.097H1V9.34106H54.9434Z" stroke="#FFF79F" stroke-width="2"/>
</svg>
