<svg width="21" height="20" viewBox="0 0 21 20" fill="none" xmlns="http://www.w3.org/2000/svg">
<path d="M9.17203 1.33151C9.63842 0.556528 10.762 0.556528 11.2284 1.33151L13.5588 5.20391C13.7264 5.48233 13.9997 5.68089 14.3162 5.75421L18.7192 6.77396C19.6004 6.97804 19.9476 8.0466 19.3547 8.72965L16.392 12.1427C16.179 12.3881 16.0746 12.7093 16.1027 13.0331L16.4934 17.5357C16.5716 18.4368 15.6627 19.0972 14.8298 18.7444L10.6683 16.9814C10.3691 16.8546 10.0313 16.8546 9.73209 16.9814L5.57057 18.7444C4.73773 19.0972 3.82876 18.4368 3.90696 17.5357L4.29773 13.0331C4.32583 12.7093 4.22144 12.3881 4.00842 12.1427L1.0457 8.72965C0.452768 8.0466 0.799967 6.97804 1.68114 6.77396L6.08416 5.75421C6.40073 5.68089 6.67403 5.48233 6.84158 5.20391L9.17203 1.33151Z" fill="#171717" stroke="#171717" stroke-width="1.5"/>
</svg>
