<svg width="16" height="20" viewBox="0 0 16 20" fill="none" xmlns="http://www.w3.org/2000/svg">
<path d="M13.5508 2.91699C15.5654 2.91707 16.7155 5.14179 15.5068 6.70117C14.991 7.36668 14.7119 8.17695 14.7119 9.00879V15.1826C14.7115 17.706 12.5965 19.7519 9.98828 19.752H6.01172C3.4035 19.752 1.28851 17.706 1.28809 15.1826V9.00879C1.28809 8.17697 1.00894 7.36668 0.493164 6.70117C-0.715323 5.14183 0.434736 2.91716 2.44922 2.91699H13.5508ZM6.01074 7.69727C5.59655 7.69729 5.26074 8.03307 5.26074 8.44727V14.2197C5.26096 14.6337 5.59668 14.9697 6.01074 14.9697C6.42482 14.9697 6.76053 14.6338 6.76074 14.2197V8.44727C6.76074 8.03305 6.42496 7.69727 6.01074 7.69727ZM9.98828 7.69727C9.57407 7.69727 9.23828 8.03305 9.23828 8.44727V14.2197C9.23849 14.6338 9.5742 14.9697 9.98828 14.9697C10.4022 14.9695 10.7381 14.6336 10.7383 14.2197V8.44727C10.7383 8.0332 10.4023 7.69751 9.98828 7.69727Z" fill="#BA5D5D"/>
<path d="M11.9771 3.63608L11.4474 2.09853C11.1694 1.2916 10.4099 0.75 9.55647 0.75H6.44311C5.58963 0.75 4.8302 1.2916 4.55219 2.09853L4.02246 3.63608" stroke="#BA5D5D" stroke-width="1.5" stroke-linecap="round"/>
</svg>
