<svg width="14" height="14" viewBox="0 0 14 14" fill="none" xmlns="http://www.w3.org/2000/svg">
<path d="M7 0C7.6234 0 8.2295 0.0743663 8.80859 0.213867C9.2812 0.327742 9.52592 0.71599 9.60449 1.03906C9.6975 1.42177 9.94942 1.76709 10.334 1.97852C10.6875 2.17284 11.0874 2.21841 11.4561 2.13574C11.7949 2.05968 12.2683 2.09558 12.585 2.44727C13.1737 3.10146 13.6386 3.86129 13.9434 4.69238C14.125 5.18839 13.8424 5.63476 13.5449 5.86816C13.2015 6.13766 12.9844 6.54465 12.9844 7C12.9844 7.45535 13.2015 7.86234 13.5449 8.13184C13.8424 8.36524 14.125 8.81161 13.9434 9.30762C13.6387 10.1386 13.1736 10.8986 12.585 11.5527C12.2683 11.9043 11.7948 11.9403 11.4561 11.8643C11.0874 11.7816 10.6875 11.8271 10.334 12.0215C9.94942 12.2329 9.69747 12.5782 9.60449 12.9609C9.52593 13.284 9.28122 13.6723 8.80859 13.7861C8.2295 13.9256 7.6234 14 7 14C6.3766 14 5.7705 13.9257 5.19141 13.7861C4.71893 13.6722 4.47506 13.284 4.39648 12.9609C4.3035 12.5781 4.05067 12.2329 3.66602 12.0215C3.31242 11.8272 2.91263 11.7815 2.54395 11.8643C2.20509 11.9403 1.7317 11.9045 1.41504 11.5527C0.826391 10.8986 0.362307 10.1386 0.0576172 9.30762C-0.124098 8.81162 0.157574 8.3653 0.455078 8.13184C0.798608 7.86234 1.0166 7.4554 1.0166 7C1.0166 6.5446 0.798608 6.13766 0.455078 5.86816C0.157574 5.6347 -0.124097 5.18838 0.0576172 4.69238C0.362335 3.8613 0.826315 3.10146 1.41504 2.44727C1.73167 2.09543 2.20506 2.05969 2.54395 2.13574C2.91257 2.21851 3.31247 2.17276 3.66602 1.97852C4.05062 1.76709 4.30347 1.4218 4.39648 1.03906C4.47507 0.716028 4.71891 0.327763 5.19141 0.213867C5.77052 0.0743392 6.37658 1.6494e-05 7 0ZM7 5.04688C5.8671 5.04696 4.94845 5.92134 4.94824 7C4.94824 8.07883 5.86697 8.95402 7 8.9541C8.13311 8.9541 9.05176 8.07888 9.05176 7C9.05155 5.92129 8.13298 5.04688 7 5.04688Z" fill="#E0E0E0" fill-opacity="0.7"/>
</svg>
