<svg width="14" height="14" viewBox="0 0 14 14" fill="none" xmlns="http://www.w3.org/2000/svg">
<path d="M7 0C10.866 0 14 3.13401 14 7C14 10.866 10.866 14 7 14C3.13401 14 0 10.866 0 7C7.24812e-08 3.13401 3.13401 7.24788e-08 7 0ZM7.16406 4.20898C6.61191 4.20898 6.16427 4.65688 6.16406 5.20898V6.16211H5.20898C4.65691 6.16224 4.20914 6.61004 4.20898 7.16211C4.20898 7.71431 4.65681 8.16197 5.20898 8.16211H6.16406V9.11621C6.1642 9.66838 6.61186 10.1162 7.16406 10.1162C7.71626 10.1162 8.16393 9.66838 8.16406 9.11621V8.16211H9.11621C9.6685 8.16211 10.1162 7.71439 10.1162 7.16211C10.1161 6.60996 9.6684 6.16211 9.11621 6.16211H8.16406V5.20898C8.16385 4.65688 7.71622 4.20898 7.16406 4.20898Z" fill="#B8B7B4"/>
</svg>
