<svg width="93" height="93" viewBox="0 0 93 93" fill="none" xmlns="http://www.w3.org/2000/svg">
<path d="M67.7147 17.2724C69.9766 19.4759 69.9766 23.1107 67.7147 25.3142L64.9591 27.9985C64.3127 28.6282 63.2821 28.6282 62.6357 27.9983C61.9893 27.3685 60.9588 27.3684 60.3123 27.9981L56.2746 31.931C53.2721 34.8556 53.2719 39.6804 56.2743 42.6052L90.192 75.6463C93.4719 78.8415 93.4719 84.1123 90.1919 87.3074C87.0313 90.3862 81.9931 90.3862 78.8325 87.3074L44.8273 54.1818C41.6572 51.0936 36.6037 51.0937 33.4336 54.182L28.5921 58.8986C27.9554 59.5189 27.9554 60.5422 28.5923 61.1624C29.2291 61.7827 29.2291 62.8059 28.5924 63.4262L25.6264 66.3155C23.4467 68.4388 19.9722 68.4388 17.7926 66.3155L1.6966 50.6357C-0.565443 48.4321 -0.565548 44.797 1.69637 42.5933L4.12063 40.2314C4.9515 39.4219 6.27606 39.4219 7.10697 40.2313C7.93784 41.0407 9.26234 41.0407 10.0932 40.2313L41.1499 9.97737C41.9681 9.18026 41.9681 7.86532 41.1499 7.0682C40.3316 6.27109 40.3317 4.95614 41.1499 4.15903L43.7845 1.59256C45.9643 -0.530856 49.439 -0.530853 51.6188 1.59257L67.7147 17.2724ZM34.5239 87.7767C34.5239 90.5381 32.2853 92.7767 29.5239 92.7767H8.72802C5.9666 92.7767 3.72802 90.5381 3.72802 87.7767C3.72802 85.0153 5.96659 82.7767 8.72802 82.7767H29.5239C32.2853 82.7767 34.5239 85.0153 34.5239 87.7767Z" fill="#E0E0E0"/>
</svg>
