<svg width="15" height="14" viewBox="0 0 15 14" fill="none" xmlns="http://www.w3.org/2000/svg">
<path d="M0.645508 0.0107422L1.40039 0.163086C2.25266 0.335662 2.89398 1.05121 2.98047 1.92578L3.04199 2.5459H12.8066C14.2334 2.54639 15.2806 3.90203 14.9346 5.30176L14.127 8.56836C13.7867 9.94418 12.5637 10.909 11.1611 10.9092H4.69336C3.69214 10.9092 2.84786 10.1526 2.72852 9.14746L2.01758 3.15039L1.90723 2.03418C1.86791 1.63668 1.57583 1.31187 1.18848 1.2334L0.433594 1.08008C0.141605 1.02088 -0.0476523 0.733783 0.0107422 0.438477C0.0692348 0.143154 0.35341 -0.0483291 0.645508 0.0107422Z" fill="#E0E0E0" fill-opacity="0.7"/>
<ellipse cx="5.21367" cy="12.9093" rx="1.0789" ry="1.09094" fill="#E0E0E0" fill-opacity="0.7"/>
<ellipse cx="11.6863" cy="12.9093" rx="1.0789" ry="1.09094" fill="#E0E0E0" fill-opacity="0.7"/>
</svg>
