<svg width="21" height="21" viewBox="0 0 21 21" fill="none" xmlns="http://www.w3.org/2000/svg">
<path d="M0.75 9.09209C0.75 7.86791 1.31058 6.71112 2.27142 5.95256L7.77142 1.61046C9.22466 0.463164 11.2753 0.463166 12.7286 1.61046L18.2286 5.95256C19.1894 6.71112 19.75 7.86791 19.75 9.09209V15.6537C19.75 17.8628 17.9591 19.6537 15.75 19.6537H14.25C13.6977 19.6537 13.25 19.206 13.25 18.6537V15.6537C13.25 14.5491 12.3546 13.6537 11.25 13.6537H9.25C8.14543 13.6537 7.25 14.5491 7.25 15.6537V18.6537C7.25 19.206 6.80228 19.6537 6.25 19.6537H4.75C2.54086 19.6537 0.75 17.8628 0.75 15.6537L0.75 9.09209Z" fill="#171717" stroke="#171717" stroke-width="1.5"/>
</svg>
