<svg width="14" height="14" viewBox="0 0 14 14" fill="none" xmlns="http://www.w3.org/2000/svg">
<path d="M5.26562 0C7.47476 0 9.26562 1.79086 9.26562 4V6.25H4.27637C3.86228 6.25 3.52658 6.58597 3.52637 7C3.52637 7.41421 3.86215 7.75 4.27637 7.75H9.26562V10C9.26562 12.2091 7.47476 14 5.26562 14H4C1.79086 14 5.15413e-07 12.2091 0 10V4C5.15413e-07 1.79086 1.79086 0 4 0H5.26562ZM10.8691 4.375C11.1594 4.07949 11.6342 4.07501 11.9297 4.36523L13.5635 5.9707C14.1411 6.53802 14.1411 7.46296 13.5635 8.03027L11.9297 9.63574C11.6342 9.92586 11.1594 9.92136 10.8691 9.62598C10.5789 9.33045 10.5834 8.85566 10.8789 8.56543L11.709 7.75H9.26562V6.25H11.708L10.8789 5.43555C10.5834 5.14531 10.5789 4.67053 10.8691 4.375Z" fill="#CB6D69"/>
</svg>
