<svg xmlns="http://www.w3.org/2000/svg" viewBox="0 0 64 64" preserveAspectRatio="xMidYMid meet">
  <g fill="#FFFFFF">
    <path d="M36 12.5379639v-.5770264c0-2.2060547-1.7939453-4-4-4s-4 1.7939453-4 4v.5770264C29.2772217 12.2153931 30.6193237 12.0390625 32 12.0390625s2.7227783.1763306 4 .4989014z"/>
    <path d="M44.3623047 23.1289063C43.4980469 17.9462891 38.1835938 14.0390625 32 14.0390625s-11.4980469 3.9072266-12.3623047 9.0898438l-3.1514282 18.9101563h31.0274048L44.3623047 23.1289063z"/>
    <path d="M32 56.0390625c2.7849121 0 5.1884155-1.6393433 6.3148193-4H25.6851807C26.8115845 54.3997192 29.2150879 56.0390625 32 56.0390625z"/>
    <path d="M48 44.0390625h-.1530151H16.1529541H16c-1.6542969 0-3 1.3457031-3 3s1.3457031 3 3 3h32c1.6542969 0 3-1.3457031 3-3s-1.3457031-3-3-3z"/>
  </g>
</svg>
