<svg width="15" height="17" viewBox="0 0 15 17" fill="none" xmlns="http://www.w3.org/2000/svg">
<path fill-rule="evenodd" clip-rule="evenodd" d="M14.4106 11.3769L14.1665 11.1209V7.98846C14.1665 4.12884 11.1819 0.999992 7.50019 1C3.81848 1.00001 0.833856 4.12884 0.833856 7.98846V11.1209L0.589727 11.3769L0.56815 11.3994C0.490207 11.4809 0.393666 11.5817 0.313047 11.6993C0.163032 11.9184 0.0640097 12.1706 0.0225348 12.4356C7.69668e-05 12.5793 0.00032754 12.723 0.000527114 12.8375L0.00056318 12.8681L0.000370473 12.9432C-0.000596739 13.1978 -0.00178535 13.5106 0.0876359 13.7885C0.254071 14.3057 0.642174 14.7114 1.13495 14.8856C1.3532 14.9628 1.59359 14.9753 1.8063 14.9769L5.34375 15C5.34375 16.08 6.30312 17 7.50016 17C8.69721 17 9.65625 16.0798 9.65625 15L12.993 14.9769C13.2059 14.9753 13.6479 14.9628 13.8662 14.8856C14.3604 14.7109 14.7459 14.3042 14.9119 13.7885C15.0018 13.5091 15.0008 13.1942 15 12.9387L14.9998 12.8681V12.8496C14.9998 12.7627 14.9999 12.6595 14.9908 12.5516L14.977 12.4356L14.9363 12.2402C14.8843 12.048 14.8007 11.8648 14.6873 11.6993C14.6067 11.5816 14.5092 11.4798 14.4321 11.3993L14.4106 11.3769ZM6.56266 15C6.56266 15.4368 6.9375 16 7.5 16C8.06097 16 8.4375 15.5 8.4375 15H6.56266Z" fill="#E0E0E0"/>
<ellipse cx="7.5" cy="1" rx="0.9375" ry="1" fill="#E0E0E0"/>
</svg>
