<svg width="12" height="14" viewBox="0 0 12 14" fill="none" xmlns="http://www.w3.org/2000/svg">
<path fill-rule="evenodd" clip-rule="evenodd" d="M0 3.09302C0 1.38479 1.45827 0 3.25714 0H8.74286C10.5417 0 12 1.38479 12 3.09302V10.907C12 12.6152 10.5417 14 8.74286 14H3.25714C1.45827 14 0 12.6152 0 10.907V3.09302ZM3.25714 3.25581C2.97311 3.25581 2.74286 3.47447 2.74286 3.74419C2.74286 4.01391 2.97311 4.23256 3.25714 4.23256H8.74286C9.02689 4.23256 9.25714 4.01391 9.25714 3.74419C9.25714 3.47447 9.02689 3.25581 8.74286 3.25581H3.25714ZM2.74286 7C2.74286 6.73028 2.97311 6.51163 3.25714 6.51163H8.74286C9.02689 6.51163 9.25714 6.73028 9.25714 7C9.25714 7.26972 9.02689 7.48837 8.74286 7.48837H3.25714C2.97311 7.48837 2.74286 7.26972 2.74286 7ZM3.25714 9.76744C2.97311 9.76744 2.74286 9.98609 2.74286 10.2558C2.74286 10.5255 2.97311 10.7442 3.25714 10.7442H6C6.28403 10.7442 6.51429 10.5255 6.51429 10.2558C6.51429 9.98609 6.28403 9.76744 6 9.76744H3.25714Z" fill="#B8B7B4"/>
</svg>
