<svg width="18" height="20" viewBox="0 0 18 20" fill="none" xmlns="http://www.w3.org/2000/svg">
<path d="M12.75 6C15.3734 6 17.5 8.12665 17.5 10.75V14.75C17.5 17.3734 15.3734 19.5 12.75 19.5H4.75C2.12665 19.5 0 17.3734 0 14.75V10.75C0 8.12665 2.12665 6 4.75 6H12.75ZM8.75 11C8.33579 11 8 11.3358 8 11.75V13.75C8 14.1642 8.33579 14.5 8.75 14.5C9.16421 14.5 9.5 14.1642 9.5 13.75V11.75C9.5 11.3358 9.16421 11 8.75 11Z" fill="#5E5E5E"/>
<path d="M12.75 6.75V4.75C12.75 2.54086 10.9591 0.75 8.75 0.75C6.54086 0.75 4.75 2.54086 4.75 4.75L4.75 6.75" stroke="#5E5E5E" stroke-width="1.5"/>
</svg>
