<svg width="22" height="18" viewBox="0 0 22 18" fill="none" xmlns="http://www.w3.org/2000/svg">
<path d="M15.75 0C18.9256 0 21.5 2.57436 21.5 5.75V11.75C21.5 14.9256 18.9256 17.5 15.75 17.5H5.75C2.57436 17.5 0 14.9256 0 11.75V5.75C0 2.57436 2.57436 0 5.75 0H15.75ZM17.3496 5.2998C17.101 4.9687 16.6311 4.90194 16.2998 5.15039L11.5 8.75C11.0556 9.08333 10.4444 9.08333 10 8.75L5.2002 5.15039C4.86893 4.90194 4.39898 4.9687 4.15039 5.2998C3.90194 5.63107 3.9687 6.10102 4.2998 6.34961L9.09961 9.9502C10.0774 10.6835 11.4226 10.6835 12.4004 9.9502L17.2002 6.34961C17.5313 6.10102 17.5981 5.63107 17.3496 5.2998Z" fill="#5E5E5E"/>
</svg>
